#N canvas 63 63 450 300 12;
#X obj 37 37 key;
#X obj 321 67 loadbang;
#X obj 321 135 s bela_setKeyboard;
#X msg 321 104 path /dev/input/event1;
#X obj 145 37 keyup;
#X obj 36 84 print key;
#X obj 145 85 print keyup;
#X text 10 161 NOTE: not all keys are mapped. See generate-parse.sh for more details;
#X connect 0 0 5 0;
#X connect 1 0 3 0;
#X connect 3 0 2 0;
#X connect 4 0 6 0;
